# xmcd
#
# Track frame offsets:
#	150
#	12734
#	21359
#	36643
#	51651
#	71308
#	82885
#	95487
#	108265
#	121006
#	131006
#	144392
#	156046
#
# Disc length: 2111 seconds
# Revision: 0
# Processed by: cddbd v1.5.1PL0 Copyright (c) Steve Scherf et al.
# Submitted via: cdrLabel 7.1
#
DISCID=b0083d0d
DTITLE=Bill Harrell - Blue Ridge Mountain Boy
DYEAR=1900
DGENRE=
TTITLE0=Hushed And Still
TTITLE1=I Want To Live
TTITLE2=Blue Eyes Crying In The Rain
TTITLE3=Virginia Special
TTITLE4=Nearer My God To Thee
TTITLE5=Goodbye Marie
TTITLE6=No Letter From Home
TTITLE7=Put It Off Until Tomorrow
TTITLE8=Love Me Like You Used To Do
TTITLE9=Whistle Britches
TTITLE10=I Love You Best Of All
TTITLE11=Blue Ridge Mountain Boy
TTITLE12=Record Commercial
EXTD=
EXTT0=
EXTT1=
EXTT2=
EXTT3=
EXTT4=
EXTT5=
EXTT6=
EXTT7=
EXTT8=
EXTT9=
EXTT10=
EXTT11=
EXTT12=
PLAYORDER=
